<?xml version="1.0" standalone="no"?>
<!DOCTYPE svg PUBLIC "-//W3C//DTD SVG 20010904//EN"
 "http://www.w3.org/TR/2001/REC-SVG-20010904/DTD/svg10.dtd">
<svg version="1.0" xmlns="http://www.w3.org/2000/svg"
 width="2000.000000pt" height="2000.000000pt" viewBox="0 0 2000.000000 2000.000000"
 preserveAspectRatio="xMidYMid meet">

<g transform="translate(0.000000,2000.000000) scale(0.100000,-0.100000)"
fill="#000000" stroke="none">
<path d="M7400 17984 c-178 -18 -311 -54 -455 -125 -351 -172 -602 -508 -670
-896 -12 -70 -15 -211 -15 -794 l0 -708 -27 -3 c-23 -2 -28 -8 -26 -28 2 -35
2 -310 0 -400 -1 -41 1 -85 5 -98 6 -16 4 -21 -3 -16 -7 4 -10 -1 -7 -12 2
-12 13 -20 31 -22 l27 -3 0 -290 0 -289 -31 0 -31 0 8 -102 c9 -125 12 -968 2
-968 -3 0 -6 -22 -6 -50 -1 -49 0 -50 29 -50 l29 0 -2 -177 -3 -178 -27 -3
c-27 -3 -28 -5 -27 -65 1 -50 3 -56 9 -32 12 46 11 6 -1 -81 -8 -59 -8 -79 2
-84 8 -5 10 -21 6 -45 -7 -43 2 -97 14 -89 5 3 9 -2 9 -11 0 -9 -4 -14 -9 -11
-14 9 -17 -70 -16 -395 0 -164 -4 -292 -8 -285 -4 6 -6 -7 -5 -29 2 -27 8 -40
18 -41 8 -1 21 -2 28 -2 9 -2 12 -859 12 -4249 0 -4685 -5 -4321 62 -4518 123
-363 414 -654 775 -774 197 -65 -14 -61 3053 -61 2482 0 2795 2 2875 16 507
88 904 484 1002 999 16 84 17 350 18 3955 1 2126 2 4127 3 4448 2 577 2 582
22 582 30 0 42 43 36 125 -3 38 -8 392 -12 785 -4 517 -3 744 6 820 6 58 9
124 5 147 -6 38 -9 43 -33 43 l-27 0 0 1483 -1 1482 -22 103 c-51 232 -129
395 -277 570 -170 202 -401 339 -682 404 l-98 22 -2765 2 c-1521 0 -2781 -1
-2800 -2z m838 -370 c33 -23 39 -40 71 -192 19 -94 38 -155 56 -186 37 -64
116 -131 181 -155 54 -21 66 -21 1609 -21 l1554 0 58 22 c74 27 163 110 193
179 11 28 33 110 47 182 23 112 31 136 55 160 l28 28 437 -3 c419 -4 441 -5
511 -26 319 -97 541 -322 635 -642 l22 -75 3 -6855 c2 -4744 -1 -6876 -8
-6924 -55 -362 -331 -654 -700 -742 -70 -17 -195 -18 -2065 -21 -1094 -2
-2350 1 -2790 5 l-800 9 -85 27 c-316 104 -535 337 -616 656 -19 73 -19 215
-19 6950 l0 6875 22 85 c60 227 211 431 406 550 104 63 181 91 342 124 11 2
202 4 425 5 352 1 409 -1 428 -15z m-1998 -5079 c0 -8 -4 -15 -10 -15 -5 0
-10 7 -10 15 0 8 5 15 10 15 6 0 10 -7 10 -15z"/>
</g>
</svg>
